<?xml version="1.0" encoding="utf-8"?>
<!-- Generator: Adobe Illustrator 19.0.0, SVG Export Plug-In . SVG Version: 6.00 Build 0)  -->
<svg version="1.1" id="Layer_1" xmlns="http://www.w3.org/2000/svg" xmlns:xlink="http://www.w3.org/1999/xlink" x="0px" y="0px"
	 viewBox="0 0 566.9 566.9" style="enable-background:new 0 0 566.9 566.9;" xml:space="preserve">
<style type="text/css">
	.st0{fill:#798083;}
	.st1{opacity:0.2;fill:#BBBFC4;}
	.st2{fill:#FFFFFF;}
</style>
<g>
	<rect id="XMLID_4_" class="st0" width="566.9" height="566.9"/>
	<polyline id="XMLID_10_" class="st1" points="566.9,0 566.9,566.9 0,566.9 	"/>
	<path class="st2" d="M413.5,377.4c0,14.8-4.5,26.4-13.5,35c-9,8.5-21,12.8-35.8,12.8H202.8c-14.9,0-26.8-4.3-35.8-12.8
		c-9-8.5-13.5-20.3-13.5-35c0-6.5,0.2-12.9,0.6-19.1c0.5-6.2,1.3-12.9,2.6-20.1c1.3-7.2,3-13.9,4.9-20s4.6-12.2,7.9-18
		c3.3-5.8,7.1-10.8,11.5-14.9c4.3-4.1,9.6-7.5,15.8-9.8c6.2-2.4,13-3.7,20.6-3.7c1.1,0,3.7,1.3,7.7,3.9c4,2.6,8.7,5.6,13.7,8.9
		c5.1,3.3,11.7,6.2,19.9,8.9c8.2,2.6,16.4,3.9,24.6,3.9c8.3,0,16.5-1.3,24.6-3.9c8.2-2.6,14.8-5.6,19.9-8.9
		c5.1-3.3,9.7-6.2,13.7-8.9c4-2.7,6.6-3.9,7.7-3.9c7.5,0,14.3,1.2,20.6,3.7c6.2,2.5,11.5,5.8,15.8,9.8c4.3,4.1,8.2,9.1,11.5,14.9
		c3.3,5.8,5.9,11.9,7.9,18c2,6.2,3.6,12.8,4.9,20c1.3,7.2,2.1,13.9,2.6,20.1C413.2,364.5,413.5,370.9,413.5,377.4z M354.3,212.6
		c0,19.6-6.9,36.3-20.7,50.1c-13.9,13.9-30.6,20.7-50.1,20.7c-19.6,0-36.3-6.9-50.1-20.7c-13.9-13.9-20.7-30.6-20.7-50.1
		s6.9-36.3,20.7-50.1c13.9-13.9,30.6-20.7,50.1-20.7c19.6,0,36.3,6.9,50.1,20.7C347.5,176.2,354.3,192.9,354.3,212.6z"/>
</g>
</svg>
