<?xml version="1.0" encoding="utf-8"?>
<!-- Generator: Adobe Illustrator 19.0.0, SVG Export Plug-In . SVG Version: 6.00 Build 0)  -->
<svg version="1.1" id="Layer_1" xmlns="http://www.w3.org/2000/svg" xmlns:xlink="http://www.w3.org/1999/xlink" x="0px" y="0px"
	 viewBox="0 0 566.9 566.9" style="enable-background:new 0 0 566.9 566.9;" xml:space="preserve">
<style type="text/css">
	.st0{fill:#798083;}
	.st1{opacity:0.2;fill:#BBBFC4;}
	.st2{fill:#FFFFFF;}
</style>
<g>
	<rect id="XMLID_4_" class="st0" width="566.9" height="566.9"/>
	<polyline id="XMLID_10_" class="st1" points="566.9,0 566.9,566.9 0,566.9 	"/>
	<path id="XMLID_3_" class="st2" d="M225.4,283.5c-17.1,0.5-31.1,7.3-41.9,20.2h-21.2c-8.6,0-15.9-2.1-21.8-6.4
		c-5.9-4.3-8.9-10.5-8.9-18.7c0-37.2,6.5-55.8,19.6-55.8c0.6,0,2.9,1.1,6.9,3.3c4,2.2,9.1,4.5,15.4,6.7c6.3,2.3,12.6,3.4,18.8,3.4
		c7.1,0,14.1-1.2,21-3.6c-0.5,3.9-0.8,7.4-0.8,10.4C212.6,257.6,216.9,271.1,225.4,283.5z M394.8,384.2c0,12.7-3.8,22.6-11.5,30
		c-7.7,7.3-17.9,11-30.7,11H214.3c-12.8,0-23-3.7-30.7-11c-7.7-7.3-11.5-17.3-11.5-30c0-5.6,0.2-11,0.6-16.4s1.1-11.1,2.2-17.2
		s2.5-11.9,4.2-17.2c1.7-5.3,4-10.4,6.8-15.4c2.8-5,6.1-9.3,9.8-12.8c3.7-3.5,8.2-6.4,13.5-8.5c5.3-2.1,11.2-3.2,17.6-3.2
		c1.1,0,3.3,1.1,6.8,3.4c3.5,2.3,7.3,4.8,11.5,7.6c4.2,2.8,9.9,5.3,16.9,7.6c7.1,2.3,14.2,3.4,21.4,3.4c7.2,0,14.3-1.1,21.4-3.4
		c7.1-2.3,12.7-4.8,16.9-7.6c4.2-2.8,8.1-5.3,11.5-7.6c3.5-2.3,5.7-3.4,6.8-3.4c6.4,0,12.3,1.1,17.6,3.2c5.3,2.1,9.8,4.9,13.5,8.5
		c3.7,3.5,7,7.8,9.8,12.8c2.8,5,5.1,10.2,6.8,15.4c1.7,5.3,3.1,11,4.2,17.2c1.1,6.2,1.8,11.9,2.2,17.2
		C394.6,373.2,394.8,378.6,394.8,384.2z M232.8,182.2c0,11.2-4,20.7-11.9,28.6s-17.5,11.9-28.6,11.9c-11.2,0-20.7-4-28.6-11.9
		s-11.9-17.5-11.9-28.6c0-11.2,4-20.7,11.9-28.6s17.5-11.9,28.6-11.9c11.2,0,20.7,4,28.6,11.9S232.8,171,232.8,182.2z M344.2,243
		c0,16.8-5.9,31.1-17.8,42.9c-11.9,11.9-26.2,17.8-42.9,17.8s-31.1-5.9-42.9-17.8s-17.8-26.2-17.8-42.9s5.9-31.1,17.8-42.9
		s26.2-17.8,42.9-17.8s31.1,5.9,42.9,17.8C338.3,211.9,344.2,226.2,344.2,243z M435.3,278.6c0,8.2-3,14.5-8.9,18.7
		c-5.9,4.3-13.2,6.4-21.8,6.4h-21.2c-10.9-13-24.8-19.7-41.9-20.2c8.5-12.3,12.8-25.8,12.8-40.5c0-3.1-0.3-6.5-0.8-10.4
		c7,2.4,14,3.6,21,3.6c6.2,0,12.5-1.1,18.8-3.4c6.3-2.3,11.5-4.5,15.4-6.7c4-2.2,6.2-3.3,6.9-3.3
		C428.8,222.7,435.3,241.3,435.3,278.6z M415.1,182.2c0,11.2-4,20.7-11.9,28.6c-7.9,7.9-17.5,11.9-28.6,11.9s-20.7-4-28.6-11.9
		c-7.9-7.9-11.9-17.5-11.9-28.6c0-11.2,4-20.7,11.9-28.6c7.9-7.9,17.5-11.9,28.6-11.9s20.7,4,28.6,11.9
		C411.1,161.5,415.1,171,415.1,182.2z"/>
</g>
</svg>
