<?xml version="1.0" encoding="utf-8"?>
<!-- Generator: Adobe Illustrator 19.0.0, SVG Export Plug-In . SVG Version: 6.00 Build 0)  -->
<svg version="1.1" id="Layer_1" xmlns="http://www.w3.org/2000/svg" xmlns:xlink="http://www.w3.org/1999/xlink" x="0px" y="0px"
	 viewBox="0 0 566.9 566.9" style="enable-background:new 0 0 566.9 566.9;" xml:space="preserve">
<style type="text/css">
	.st0{fill:#798083;}
	.st1{opacity:0.2;fill:#BBBFC4;}
	.st2{fill:#FFFFFF;}
</style>
<g>
	<rect id="XMLID_4_" class="st0" width="566.9" height="566.9"/>
	<polyline id="XMLID_10_" class="st1" points="566.9,0 566.9,566.9 0,566.9 	"/>
	<path class="st2" d="M315.8,363.2v53.1c0,2.4-0.9,4.4-2.7,6.2c-1.8,1.8-3.8,2.7-6.2,2.7h-53.1c-2.4,0-4.4-0.9-6.2-2.7
		c-1.8-1.8-2.7-3.8-2.7-6.2v-53.1c0-2.4,0.9-4.4,2.7-6.2c1.8-1.8,3.8-2.7,6.2-2.7h53.1c2.4,0,4.4,0.9,6.2,2.7
		C314.9,358.8,315.8,360.8,315.8,363.2z M385.8,230.3c0,8-1.1,15.4-3.4,22.4c-2.3,6.9-4.9,12.6-7.8,16.9s-6.9,8.7-12.2,13.2
		c-5.2,4.4-9.5,7.6-12.7,9.6s-7.8,4.6-13.5,7.9c-6.1,3.4-11.1,8.2-15.2,14.4c-4.1,6.2-6.1,11.1-6.1,14.8c0,2.5-0.9,4.9-2.7,7.2
		c-1.8,2.3-3.8,3.4-6.2,3.4h-53.1c-2.2,0-4.1-1.4-5.6-4.1c-1.6-2.7-2.3-5.5-2.3-8.3v-10c0-12.3,4.8-23.8,14.4-34.7
		c9.6-10.9,20.2-18.9,31.7-24c8.7-4,14.9-8.1,18.6-12.4c3.7-4.3,5.5-9.9,5.5-16.8c0-6.2-3.4-11.7-10.3-16.4
		c-6.9-4.7-14.8-7.1-23.8-7.1c-9.6,0-17.6,2.1-23.9,6.4c-5.2,3.7-13.1,12.2-23.7,25.5c-1.9,2.4-4.2,3.5-6.9,3.5
		c-1.8,0-3.6-0.6-5.5-1.8l-36.3-27.7c-1.9-1.5-3.1-3.3-3.4-5.5s0-4.3,1.2-6.2c23.6-39.3,57.9-58.9,102.8-58.9
		c11.8,0,23.7,2.3,35.7,6.9c12,4.6,22.7,10.7,32.3,18.4c9.6,7.7,17.4,17.1,23.5,28.2S385.8,218.1,385.8,230.3z"/>
</g>
</svg>
